<svg width="53" height="40" viewBox="0 0 53 40" fill="none" xmlns="http://www.w3.org/2000/svg">
<path d="M8.85422 0.0104419C6.89125 0.0104419 5.32506 1.69149 5.32506 3.68578V19.0658H3.40386C1.53487 19.0658 0 20.6007 0 22.4697V36.4819C0 38.3509 1.52443 39.8857 3.40386 39.8857H11.7882C13.6572 39.8857 15.1921 38.3509 15.1921 36.4819V32.5246H23.0231V38.0585H20.1726C19.6714 38.0585 19.2642 38.4657 19.2642 38.9773C19.2642 39.4785 19.6714 39.8857 20.1726 39.8962H38.142C38.3822 39.8962 38.6223 39.8022 38.7894 39.6247C38.9565 39.4576 39.0609 39.2175 39.0609 38.9773C39.0609 38.7372 38.9669 38.497 38.7894 38.33C38.6223 38.1629 38.3822 38.0585 38.142 38.0585H35.2916V32.5246H49.4604C51.4234 32.5246 53 30.8436 53 28.8389V3.67534C53 1.68105 51.4338 0 49.4604 0L8.85422 0.0104419ZM8.85422 1.84811H49.4604C50.3897 1.84811 51.1623 2.63121 51.1623 3.69622V23.8061H15.1921V22.4801C15.1921 20.6111 13.6677 19.0762 11.7882 19.0762H7.14185V3.68578C7.14185 2.62076 7.92494 1.84811 8.85422 1.84811ZM3.40386 20.893H11.7882C12.6757 20.893 13.3544 21.5822 13.3544 22.4801V36.4923C13.3544 37.3903 12.6757 38.069 11.7882 38.069H3.40386C2.51635 38.069 1.82723 37.3798 1.82723 36.4923V22.4697C1.83767 21.5822 2.51635 20.893 3.40386 20.893ZM15.1816 25.6229H51.1623V28.8493C51.1623 29.9143 50.3897 30.7078 49.4604 30.7078H15.1816V25.6229ZM24.8503 32.5351H33.4643V38.069H24.8503V32.5351ZM7.59082 34.3832C6.94346 34.3832 6.4214 34.9052 6.4214 35.5526C6.4214 36.2 6.94346 36.722 7.59082 36.722C8.23818 36.722 8.76025 36.2 8.76025 35.5526C8.76025 34.9052 8.23818 34.3832 7.59082 34.3832Z" fill="black"/>
</svg>
