<svg width="53" height="50" viewBox="0 0 53 50" fill="none" xmlns="http://www.w3.org/2000/svg">
<path d="M14.7554 27.1219C4.65304 27.5864 4.65305 40.9069 4.65305 48.0565L5.582 48.0897L6.51095 48.0565C6.51095 39.0158 7.1579 29.3282 14.8383 28.9799C17.7413 28.8471 20.0637 29.6102 21.7723 31.2359C24.3435 33.691 24.9407 37.5229 25.0568 39.7457H22.2865C21.7723 39.7457 21.3576 40.1604 21.3576 40.6747V43.4615C18.2721 43.4615 16.1986 42.6321 16.1654 42.6155C15.7009 42.4165 15.1535 42.6321 14.9379 43.0966C14.7388 43.5611 14.9545 44.1085 15.4189 44.3241C15.5185 44.3573 17.7579 45.336 21.2746 45.336H21.3576V48.1229C21.3576 48.6371 21.7723 49.0518 22.2865 49.0518C22.8008 49.0518 23.2155 48.6371 23.2155 48.1229V41.6202H26.0023C26.5166 41.6202 26.9313 41.2055 26.9313 40.6913C26.9313 38.568 26.5498 33.2597 23.0496 29.9088C20.976 27.9016 18.1726 26.9727 14.7554 27.1219Z" fill="black"/>
<path d="M20.13 36.2291C20.13 36.876 19.6158 37.3902 18.9689 37.3902C18.3219 37.3902 17.8077 36.876 17.8077 36.2291C17.8077 35.5821 18.3219 35.0679 18.9689 35.0679C19.6158 35.0679 20.13 35.5821 20.13 36.2291Z" fill="black"/>
<path d="M52.0296 0.72998H29.7347C29.2205 0.72998 28.8058 1.14469 28.8058 1.65893V16.5222C28.8058 17.0364 29.2205 17.4511 29.7347 17.4511H39.9532V21.1669H34.3795C33.8653 21.1669 33.4505 21.5816 33.4505 22.0959C33.4505 22.6101 33.8653 23.0248 34.3795 23.0248H47.3848C47.8991 23.0248 48.3138 22.6101 48.3138 22.0959C48.3138 21.5816 47.8991 21.1669 47.3848 21.1669H41.8111V17.4511H52.0296C52.5438 17.4511 52.9585 17.0364 52.9585 16.5222V1.65893C52.9585 1.14469 52.5438 0.72998 52.0296 0.72998ZM51.1006 15.5932H30.6637V2.58788H51.1006V15.5932Z" fill="black"/>
<path d="M51.8305 47.5092V43.3455C51.8305 43.0966 51.731 42.8644 51.5651 42.6819L40.0196 31.1364C39.9864 31.1032 39.9698 31.0534 39.9366 31.0037C39.9034 30.9705 39.8537 30.9539 39.8039 30.9207L36.8014 27.9182C36.4365 27.5533 35.8559 27.5533 35.4909 27.9182L30.9457 32.4635C30.5807 32.8284 30.5807 33.409 30.9457 33.774L45.7094 48.5376C45.8919 48.7201 46.1241 48.8031 46.3729 48.8031H50.5366L51.3992 49.6657C51.5817 49.8481 51.8139 49.9311 52.0628 49.9311C52.3116 49.9311 52.5438 49.8481 52.7263 49.6657C53.0912 49.3007 53.0912 48.7201 52.7263 48.3552L51.8305 47.5092ZM36.1379 29.9089L37.946 31.717L34.7113 34.9351L32.9031 33.127L36.1379 29.9089ZM49.956 46.9617H46.7213L36.0052 36.2456L39.2399 33.0109L49.956 43.727V46.9617Z" fill="black"/>
<path d="M14.9047 20.4369C20.5448 20.4369 25.1232 15.8585 25.1232 10.2185C25.1232 4.5784 20.5448 0 14.9047 0C9.26464 0 4.68623 4.5784 4.68623 10.2185C4.68623 12.6404 5.53224 14.8632 6.95884 16.6216L0.273709 23.2901C-0.0912363 23.6551 -0.0912363 24.2357 0.273709 24.6006C0.456182 24.7831 0.688419 24.866 0.937246 24.866C1.18607 24.866 1.41831 24.7831 1.60078 24.6006L8.25274 17.9487C10.0277 19.508 12.3501 20.4369 14.9047 20.4369ZM6.54413 10.2185C6.54413 5.60689 10.2931 1.85791 14.9047 1.85791C19.5163 1.85791 23.2653 5.60689 23.2653 10.2185C23.2653 14.83 19.5163 18.579 14.9047 18.579C12.8809 18.579 11.0064 17.8491 9.56322 16.6382C9.08216 16.2401 8.66745 15.7922 8.28592 15.2945C7.19108 13.8845 6.54413 12.1261 6.54413 10.2185Z" fill="black"/>
</svg>
