<svg fill="none" height="40" viewBox="0 0 53 40" width="53" xmlns="http://www.w3.org/2000/svg"><path d="m52.2907 26.186c-1.0814-11.5-8.5349-20.95344-18.2791-24.23251h8.8954c.2209.38372.6395.65116 1.1163.65116.7209 0 1.3023-.58139 1.3023-1.30232 0-.720935-.5814-1.30233-1.3023-1.30233-.4768 0-.8954.267443-1.1163.651163h-32.8605c-.22092-.38372-.63952-.651163-1.11627-.651163-.72093 0-1.30232.581395-1.30232 1.30233 0 .72093.58139 1.30232 1.30232 1.30232.47675 0 .89535-.26744 1.11627-.65116h8.9419c-9.74422 3.27907-17.1977 12.72091-18.279098 24.23251-.418605.221-.709302.6512-.709302 1.1512 0 .7209.581396 1.3023 1.30233 1.3023.72093 0 1.30232-.5814 1.30232-1.3023 0-.4535-.24419-.8605-.59302-1.093 1.27907-13.3489 11.52327-23.77908 23.70927-24.20932-.7209 2.60465-4.1511 14.05812-10.7093 20.45352-.1511.1511-.2209.3721-.186.593.0349.2093.186.3953.3837.4767 3.9419 1.6512 6.2558 4.2442 6.9186 7.7093-1.5116.1163-2.6977 1.3721-2.6977 2.907v1.8023c-.8837.1163-1.5697.8605-1.5697 1.7675 0 .9884.8023 1.7907 1.7907 1.7907h13.6976c.9884 0 1.7907-.8023 1.7907-1.7907 0-.907-.686-1.6512-1.5697-1.7675v-1.8023c0-1.5349-1.1977-2.7907-2.6977-2.907.6512-3.4651 2.9767-6.0581 6.9186-7.7093.1977-.0814.3488-.2674.3837-.4767.0465-.2093-.0232-.4302-.186-.593-6.5465-6.3838-9.9884-17.84887-10.7093-20.45352 12.186.43024 22.4302 10.86042 23.7093 24.20932-.3605.2325-.5931.6279-.5931 1.093 0 .7209.5814 1.3023 1.3024 1.3023.7209 0 1.3023-.5814 1.3023-1.3023 0-.5116-.2907-.9419-.7093-1.1512zm-25.7907-8.7674c.5698 0 1.0465.4651 1.0465 1.0465 0 .5698-.4651 1.0465-1.0465 1.0465-.5698 0-1.0465-.4651-1.0465-1.0465s.4767-1.0465 1.0465-1.0465zm7.3372 20.3256c0 .2674-.2209.4884-.4884.4884h-13.6976c-.2675 0-.4884-.221-.4884-.4884 0-.2675.2209-.4884.4884-.4884h13.6976c.2675 0 .4884.2209.4884.4884zm-1.5698-3.5814v1.7907h-11.5348v-1.7907c0-.8954.7325-1.6279 1.6279-1.6279h.5116.0116 7.2326.0116.5116c.8954 0 1.6279.7325 1.6279 1.6279zm-2.7209-2.9302h-6.1046c-.6279-3.7559-2.9303-6.6047-6.8605-8.5 4.7093-4.9652 7.7093-12.1628 9.2558-16.69772v10.17442c-.9767.2791-1.6977 1.1744-1.6977 2.2442 0 1.2907 1.0465 2.3488 2.3489 2.3488 1.2907 0 2.3488-1.0465 2.3488-2.3488 0-1.0698-.7209-1.9535-1.6977-2.2442v-10.16279c1.5582 4.53489 4.5582 11.73259 9.2558 16.69769-3.9069 1.8837-6.2093 4.7325-6.8488 8.4884z" fill="#000"/></svg>