<?xml version="1.0" encoding="utf-8"?>
<!-- Generator: Adobe Illustrator 27.0.0, SVG Export Plug-In . SVG Version: 6.00 Build 0)  -->
<svg version="1.1" id="Livello_1" xmlns="http://www.w3.org/2000/svg" xmlns:xlink="http://www.w3.org/1999/xlink" x="0px" y="0px"
	 viewBox="0 0 2400 619" style="enable-background:new 0 0 2400 619;" xml:space="preserve">
<style type="text/css">
	.st0{fill:#303030;}
	.st1{fill:url(#SVGID_1_);}
	.st2{fill:url(#SVGID_00000095307172156027194620000006745981519024601271_);}
	.st3{fill:url(#SVGID_00000075851791599725636560000016199235439891168170_);}
	.st4{fill:#5B5B5B;}
</style>
<g>
	<path class="st0" d="M970.9,197.4c-5-2.6-10.3-4.8-16-6.6c-5.6-1.9-11-2.8-16.2-2.8c-6.9,0-12.4,1.5-16.4,4.6
		c-4,3.1-6.1,7.3-6.1,12.7c0,3.8,1.4,7.2,4.1,10.1c2.8,2.9,6.3,5.4,10.8,7.5c4.4,2.1,9.1,4.1,13.9,6.1c4.2,1.5,8.4,3.4,12.6,5.5
		s7.9,4.7,11.3,7.8c3.3,3.1,6,6.9,7.9,11.4c1.9,4.6,2.9,10.2,2.9,16.8c0,7.3-1.8,14-5.5,20.1c-3.7,6.1-8.9,10.9-15.9,14.5
		c-6.9,3.6-15.3,5.4-25.2,5.4c-5.9,0-11.6-0.6-17.2-1.9c-5.6-1.3-10.9-3-15.9-5.3c-5-2.2-9.6-4.8-13.9-7.6l10-17.5
		c3.1,2.3,6.6,4.4,10.6,6.3c4,1.9,8.1,3.5,12.3,4.6c4.2,1.2,8.2,1.7,11.9,1.7c4,0,7.9-0.7,11.8-2c3.9-1.3,7.2-3.5,9.8-6.4
		c2.6-2.9,3.9-6.9,3.9-11.7c0-4-1.1-7.4-3.4-10.2c-2.2-2.8-5.2-5.3-8.9-7.4c-3.7-2.1-7.8-4-12.1-5.7c-4.4-1.7-8.8-3.5-13.3-5.6
		c-4.5-2.1-8.7-4.6-12.6-7.6c-3.9-3-7.1-6.7-9.5-11.1c-2.4-4.4-3.7-9.7-3.7-16.2c0-7.7,1.8-14.4,5.4-20c3.6-5.6,8.6-10.1,14.9-13.5
		c6.4-3.3,13.7-5.1,22-5.4c9.9,0,18.3,1.2,25.3,3.6c7,2.4,13.2,5.2,18.6,8.6L970.9,197.4z"/>
	<path class="st0" d="M994.8,308.9l61.9-145.8h1.3l61.9,145.8h-25.8l-43.5-110.8l16-10.8l-50,121.6H994.8z M1033.7,256.8h47.9
		l7.7,19.2h-62.3L1033.7,256.8z"/>
	<path class="st0" d="M1183.3,168.9c7.7,0,14.7,1,21.2,3c6.4,2,11.9,4.9,16.4,8.8c4.5,3.8,8,8.6,10.5,14.1c2.5,5.6,3.8,12,3.8,19.1
		c0,5.5-0.8,11-2.5,16.5c-1.7,5.5-4.4,10.5-8.2,14.9c-3.8,4.4-8.8,8-14.9,10.8c-6.2,2.8-13.8,4.1-22.9,4.1h-20.2v48.7h-22.5V168.9
		H1183.3z M1186.4,238.7c5,0,9.2-0.8,12.5-2.4c3.3-1.6,5.9-3.6,7.8-6.1c1.9-2.4,3.2-5,4-7.8c0.8-2.8,1.3-5.4,1.3-7.8
		c0-2.3-0.4-4.8-1.2-7.6c-0.8-2.8-2.1-5.4-3.9-7.9c-1.9-2.5-4.4-4.6-7.6-6.3c-3.2-1.7-7.2-2.5-12.1-2.5h-20.8v48.3H1186.4z
		 M1210.6,252l35.8,56.9h-26l-36.6-56.4L1210.6,252z"/>
	<path class="st0" d="M1258.2,308.9l61.9-145.8h1.3l61.9,145.8h-25.8l-43.5-110.8l16-10.8l-50,121.6H1258.2z M1297,256.8h47.9
		l7.7,19.2h-62.3L1297,256.8z"/>
	<path class="st0" d="M1468.8,308.9V168.9h39.8c13.9,0,25.7,2.1,35.5,6.4c9.8,4.2,17.7,9.8,23.8,16.7c6,6.9,10.4,14.7,13.2,23.2
		c2.8,8.5,4.1,17.1,4.1,25.7c0,10.5-1.9,19.9-5.6,28.3c-3.7,8.3-8.8,15.5-15.3,21.5c-6.5,6-13.9,10.5-22.3,13.7
		c-8.4,3.1-17.3,4.7-26.6,4.7H1468.8z M1491.3,287.4h20c7.4,0,14.2-1.1,20.4-3.2c6.2-2.1,11.5-5.2,16.1-9.2c4.6-4,8.1-9.1,10.6-15.1
		c2.5-6,3.7-12.9,3.7-20.6c0-8.7-1.4-16.2-4.3-22.4c-2.9-6.2-6.7-11.3-11.4-15.2c-4.7-3.9-9.8-6.8-15.3-8.7
		c-5.5-1.9-11-2.8-16.4-2.8h-23.5V287.4z"/>
	<path class="st0" d="M1615,168.9h92.9v21.5h-70.4v37.3h62.7v21.5h-62.7v38.1h73.1v21.5H1615V168.9z"/>
	<path class="st0" d="M1864.7,313.9l-107.5-104.3l6.5,2.7l0.6,96.6h-22.7V164.1h1.2l105.8,104.3l-5.2-1.5l-0.4-97.9h22.3v145.1
		H1864.7z"/>
	<path class="st0" d="M1889.4,308.9l61.9-145.8h1.3l61.9,145.8h-25.8l-43.5-110.8l16-10.8l-50,121.6H1889.4z M1928.2,256.8h47.9
		l7.7,19.2h-62.3L1928.2,256.8z"/>
	<path class="st0" d="M2077.9,168.9c7.7,0,14.7,1,21.2,3c6.4,2,11.9,4.9,16.4,8.8c4.5,3.8,8,8.6,10.5,14.1c2.5,5.6,3.8,12,3.8,19.1
		c0,5.5-0.8,11-2.5,16.5c-1.7,5.5-4.4,10.5-8.2,14.9c-3.8,4.4-8.8,8-14.9,10.8c-6.2,2.8-13.8,4.1-22.9,4.1H2061v48.7h-22.5V168.9
		H2077.9z M2081,238.7c5,0,9.2-0.8,12.5-2.4c3.3-1.6,5.9-3.6,7.8-6.1c1.9-2.4,3.2-5,4-7.8c0.8-2.8,1.3-5.4,1.3-7.8
		c0-2.3-0.4-4.8-1.2-7.6c-0.8-2.8-2.1-5.4-3.9-7.9c-1.9-2.5-4.4-4.6-7.6-6.3c-3.2-1.7-7.2-2.5-12.1-2.5H2061v48.3H2081z M2105.2,252
		l35.8,56.9h-26l-36.6-56.4L2105.2,252z"/>
	<path class="st0" d="M2154.8,239.1c0-9.7,1.9-18.9,5.6-27.5c3.7-8.6,8.8-16.2,15.4-22.9c6.5-6.7,14.1-11.9,22.8-15.7
		c8.7-3.8,17.9-5.7,27.8-5.7c9.7,0,19,1.9,27.6,5.7c8.7,3.8,16.3,9,22.9,15.7s11.8,14.3,15.6,22.9c3.8,8.6,5.7,17.8,5.7,27.5
		c0,9.9-1.9,19.1-5.7,27.8c-3.8,8.7-9,16.3-15.6,22.8c-6.6,6.5-14.2,11.6-22.9,15.3c-8.7,3.7-17.9,5.5-27.6,5.5
		c-10,0-19.3-1.8-27.9-5.5c-8.6-3.7-16.2-8.7-22.7-15.2c-6.5-6.5-11.7-14-15.4-22.7C2156.7,258.4,2154.8,249.1,2154.8,239.1z
		 M2177.9,239.1c0,6.9,1.3,13.4,3.8,19.4c2.5,6,6,11.3,10.5,15.9c4.5,4.6,9.7,8.1,15.6,10.7c5.9,2.6,12.3,3.8,19.2,3.8
		c6.7,0,12.9-1.3,18.8-3.8c5.8-2.6,10.9-6.1,15.3-10.7c4.4-4.6,7.8-9.8,10.3-15.9c2.5-6,3.8-12.5,3.8-19.4c0-7.1-1.3-13.6-3.8-19.6
		c-2.6-6-6-11.4-10.4-16c-4.4-4.6-9.5-8.2-15.4-10.8c-5.9-2.6-12.2-3.8-19-3.8s-13.1,1.3-19,3.8c-5.9,2.6-11.1,6.2-15.5,10.8
		c-4.4,4.6-7.9,10-10.3,16.1C2179.1,225.7,2177.9,232.2,2177.9,239.1z"/>
</g>
<g>
	<path class="st0" d="M662.8,59.9C645.7,47,627,37.1,607.5,30.2c-23.4-8.3-48.1-12.4-72.7-12.2c-53,0.6-106,21.1-146.4,61.5
		l-21.2,21.2L342,126l-24.4-60.5c0,0-5.9-14.7-5.9-14.7c-1.3-3.1-2.4-6.7-4.4-9.6c-1.7-2.6-4.3-4.7-6.5-6.9
		c-11.7-9-28.7-8.2-39.5,2.6L247,51.2l-7.1,7.1l-42.4,42.4L155,143.2l-42.4,42.4l-42.4,42.4l-21.2,21.2
		C14.1,284.1,0,331.6,6.4,376.7c3.1,21.6,10.8,42.6,23.3,61.5c5.5,8.2,11.8,16.1,19.1,23.3c7.3,7.3,15.1,13.7,23.3,19.1
		c18.9,12.5,39.9,20.3,61.5,23.3c45.1,6.5,92.6-7.7,127.3-42.4l21.2-21.2l42.4,42.4l42.4,42.4l42.4,42.4l21.2,21.2
		c9.7,9.7,24.3,11.4,35.7,5.1c2.5-1.3,4.7-3,6.8-5.1l21.2-21.2l18.6-18.6l23.9-23.9l42.4-42.4l42.4-42.4l42.4-42.4l21.2-21.2
		c40.5-40.5,61-93.4,61.5-146.4c0.2-24.7-3.8-49.3-12.2-72.7c-6.9-19.5-16.8-38.1-29.7-55.2c-5.9-7.9-12.5-15.5-19.7-22.7
		C678.3,72.4,670.7,65.8,662.8,59.9z M685.5,206.9c6.4,45.2-7.7,92.6-42.4,127.3l-21.2,21.2l-42.4,42.4l-40.3,40.3l-2.1,2.1
		l-42.4,42.4l-5.9,5.9l-36.6,36.6l-22.4-22.4l-20-20l-42.4-42.4l-42.4-42.4l42.4-42.4l4.8,4.8l16.5,16.5l21.2,21.2l21.2,21.2
		c8.8,8.8,21.6,11,32.4,6.7c0.4-0.2,0.7-0.3,1.1-0.5c3.3-1.4,6.3-3.5,9-6.2l21.2-21.2l21.2-21.2l21.2-21.2l42.4-42.4l21.2-21.2
		c27.7-27.7,33.6-69,17.6-102.5c-4.2-9-10.1-17.4-17.6-24.9c-7.5-7.5-15.8-13.3-24.9-17.6c-33.5-15.9-74.8-10.1-102.5,17.6
		l-21.2,21.2l-42.4,42.4l-18.8,18.8l-2.5,2.5l-21.2,21.2L344.8,293l-5.7,5.7L324.7,313l-21.2,21.2l-21.2,21.2l-42.4,42.4l-21.2,21.2
		c-27.7,27.7-69,33.6-102.5,17.6c-9-4.2-17.4-10.1-24.9-17.6c-7.5-7.5-13.3-15.8-17.6-24.9c-16-33.4-10.1-74.8,17.6-102.5l21.2-21.2
		l42.4-42.4l21.2-21.2l21.2-21.2l42.4-42.4l31.6-31.6l24.5,60.4l-13.6,13.6l-42.4,42.4l-2.1,2.1l-40.3,40.3l-3.6,3.6L155,313
		l-21.2,21.2c-11.7,11.7-11.7,30.7,0,42.4c11.7,11.7,30.7,11.7,42.4,0l21.2-21.2l38.8-38.8l3.6-3.6l40.3-40.3l2.1-2.1l38-38l4.4-4.4
		l2.2-2.2l39.5-39.5l0.8-0.8l42.4-42.4l21.2-21.2c34.7-34.7,82.2-48.8,127.3-42.4c21.6,3.1,42.6,10.8,61.5,23.3
		c8.2,5.5,16.1,11.8,23.3,19.1c7.3,7.3,13.7,15.1,19.1,23.3C674.7,164.2,682.5,185.3,685.5,206.9z M415.3,307.4l36.8-36.8l3.6-3.6
		l38.8-38.8l21.2-21.2c11.7-11.7,30.7-11.7,42.4,0c11.7,11.7,11.7,30.7,0,42.4L537,270.6l-38.8,38.8l-3.6,3.6l-40.3,40.3l-2.1,2.1
		l-21.2-21.2l-7.8-7.8L409.6,313l2.1-2.1L415.3,307.4z"/>
	<linearGradient id="SVGID_1_" gradientUnits="userSpaceOnUse" x1="347.7683" y1="463.6738" x2="303.6938" y2="418.9611">
		<stop  offset="0.3343" style="stop-color:#000000;stop-opacity:0"/>
		<stop  offset="1" style="stop-color:#000000"/>
	</linearGradient>
	<polygon class="st1" points="327.1,485.2 369.6,442.7 324.8,397.9 282.3,440.4 	"/>
	
		<linearGradient id="SVGID_00000034788993740345088070000012050585484653192345_" gradientUnits="userSpaceOnUse" x1="432.4899" y1="378.9522" x2="388.4154" y2="334.2395">
		<stop  offset="0.3343" style="stop-color:#000000;stop-opacity:0"/>
		<stop  offset="1" style="stop-color:#000000"/>
	</linearGradient>
	<polygon style="fill:url(#SVGID_00000034788993740345088070000012050585484653192345_);" points="411.8,400.4 454.3,358 
		409.5,313.2 367,355.7 	"/>
	
		<linearGradient id="SVGID_00000022553032445349258380000009654980366746127273_" gradientUnits="userSpaceOnUse" x1="683.307" y1="585.5337" x2="645.84" y2="547.5242" gradientTransform="matrix(-1 0 0 -1 979.769 692.7477)">
		<stop  offset="0.2363" style="stop-color:#000000;stop-opacity:0"/>
		<stop  offset="1" style="stop-color:#000000"/>
	</linearGradient>
	<polygon style="fill:url(#SVGID_00000022553032445349258380000009654980366746127273_);" points="315.9,61.4 271.4,111.7 
		295.9,172.2 342.1,126 	"/>
</g>
<g>
	<path class="st4" d="M902.4,433.8c0,5.5-1.1,10.3-3.2,14.2c-2.1,3.9-5,6.9-8.6,8.9c-3.7,2-7.8,3.2-12.6,3.4v-8.9
		c4.4-0.3,8-1.8,10.9-4.7c2.9-2.9,4.3-7.3,4.3-13.2v-55.7h9.2V433.8z"/>
	<path class="st4" d="M947.9,422c0,3.1,0.7,5.8,2.2,8.3c1.5,2.4,3.5,4.3,5.9,5.7c2.5,1.4,5.2,2.1,8.3,2.1c3.2,0,6.1-0.7,8.6-2.1
		c2.5-1.4,4.5-3.3,6-5.7c1.4-2.4,2.2-5.2,2.2-8.3v-44.1h9v44.4c0,5-1.1,9.3-3.4,13c-2.3,3.7-5.4,6.6-9.3,8.6c-3.9,2-8.2,3-13,3
		c-4.8,0-9.1-1-12.9-3c-3.8-2-6.9-4.9-9.2-8.6c-2.3-3.7-3.4-8.1-3.4-13v-44.4h9.1V422z"/>
	<path class="st4" d="M1085.5,448.4l-52.8-53.6l2.6,0.7l0.2,50.8h-9.2v-70.4h0.5l52.3,53.8l-2.2-0.5l-0.2-51.2h9.1v70.5H1085.5z"/>
	<path class="st4" d="M1123,377.9h9.2v68.3h-9.2V377.9z"/>
	<path class="st4" d="M1165.2,412.1c0-4.7,0.9-9.2,2.7-13.4c1.8-4.2,4.3-7.9,7.5-11.2c3.2-3.2,6.9-5.8,11.1-7.7
		c4.2-1.9,8.7-2.8,13.6-2.8c4.8,0,9.3,0.9,13.5,2.8c4.2,1.9,7.9,4.4,11.2,7.7c3.2,3.2,5.8,7,7.6,11.2c1.8,4.2,2.7,8.6,2.7,13.4
		c0,4.9-0.9,9.4-2.7,13.6c-1.8,4.2-4.4,7.9-7.6,11.1c-3.2,3.2-7,5.7-11.2,7.5c-4.2,1.8-8.7,2.7-13.5,2.7c-4.8,0-9.4-0.9-13.6-2.6
		c-4.2-1.8-7.9-4.2-11.1-7.4c-3.2-3.1-5.7-6.8-7.5-11.1C1166.1,421.7,1165.2,417.1,1165.2,412.1z M1174.6,412.2
		c0,3.6,0.7,6.9,2,10.1s3.1,5.9,5.5,8.3c2.3,2.4,5,4.3,8.1,5.6c3.1,1.4,6.4,2,10,2c3.5,0,6.8-0.7,9.9-2c3.1-1.4,5.8-3.2,8-5.6
		c2.3-2.4,4.1-5.2,5.4-8.3s2-6.5,2-10.2c0-3.6-0.7-7-2-10.2c-1.3-3.2-3.2-6-5.5-8.4c-2.3-2.4-5-4.3-8.1-5.6c-3.1-1.4-6.4-2-9.9-2
		c-3.6,0-6.9,0.7-10,2.1c-3.1,1.4-5.8,3.3-8.1,5.7c-2.3,2.4-4.1,5.2-5.4,8.4C1175.3,405.2,1174.6,408.6,1174.6,412.2z"/>
	<path class="st4" d="M1286.1,377.9c3.5,0,6.7,0.5,9.6,1.4c2.9,0.9,5.5,2.3,7.7,4.1c2.2,1.8,3.9,4,5.1,6.6c1.2,2.6,1.8,5.7,1.8,9.1
		c0,2.7-0.4,5.4-1.2,7.9c-0.8,2.6-2.1,4.9-3.9,7c-1.8,2.1-4.2,3.8-7.1,5.1c-2.9,1.3-6.5,1.9-10.8,1.9h-10.1v25.1h-9.2v-68.3H1286.1z
		 M1287.1,412.3c2.7,0,5-0.4,6.8-1.2c1.8-0.8,3.2-1.9,4.2-3.2c1-1.3,1.7-2.7,2.2-4.2c0.4-1.5,0.7-2.9,0.7-4.3c0-1.4-0.2-2.8-0.7-4.3
		c-0.5-1.5-1.2-2.8-2.3-4.1c-1-1.3-2.4-2.3-4.1-3.1c-1.7-0.8-3.7-1.2-6.1-1.2h-10.6v25.6H1287.1z M1298.3,417.5l17.9,28.7h-10.6
		l-18.1-28.4L1298.3,417.5z"/>
	<path class="st4" d="M1403.5,422c0,3.1,0.7,5.8,2.2,8.3c1.5,2.4,3.5,4.3,5.9,5.7c2.5,1.4,5.2,2.1,8.3,2.1c3.2,0,6.1-0.7,8.6-2.1
		c2.5-1.4,4.5-3.3,6-5.7c1.4-2.4,2.2-5.2,2.2-8.3v-44.1h9v44.4c0,5-1.1,9.3-3.4,13c-2.3,3.7-5.4,6.6-9.3,8.6c-3.9,2-8.2,3-13,3
		s-9.1-1-12.9-3c-3.8-2-6.9-4.9-9.2-8.6c-2.3-3.7-3.4-8.1-3.4-13v-44.4h9.1V422z"/>
	<path class="st4" d="M1475.4,446.2l23.7-37.1l4.4,8.9l-16.8,28.3H1475.4z M1476.3,377.9h11.6l44.5,68.3h-11.7L1476.3,377.9z
		 M1503.8,405.8l16.6-27.9h11.1l-22.8,35.5L1503.8,405.8z"/>
	<path class="st4" d="M1589.4,375.8c-4.4,12-8.8,24.1-13.2,36.1s-8.9,24.1-13.3,36.1h-8c4.5-12,8.9-24.1,13.3-36.1
		c4.4-12,8.9-24.1,13.3-36.1H1589.4z"/>
	<path class="st4" d="M1625.2,422c0,3.1,0.7,5.8,2.2,8.3c1.5,2.4,3.5,4.3,5.9,5.7c2.5,1.4,5.2,2.1,8.3,2.1c3.2,0,6.1-0.7,8.6-2.1
		c2.5-1.4,4.5-3.3,6-5.7c1.4-2.4,2.2-5.2,2.2-8.3v-44.1h9v44.4c0,5-1.1,9.3-3.4,13c-2.3,3.7-5.4,6.6-9.3,8.6c-3.9,2-8.2,3-13,3
		c-4.8,0-9.1-1-12.9-3c-3.8-2-6.9-4.9-9.2-8.6c-2.3-3.7-3.4-8.1-3.4-13v-44.4h9.1V422z"/>
	<path class="st4" d="M1703.6,377.9h9.2v68.3h-9.2V377.9z"/>
	<path class="st4" d="M1797.4,446.2v-68.3h18.6c6.7,0,12.5,1,17.2,3.1c4.8,2.1,8.6,4.8,11.5,8.2c2.9,3.4,5,7.2,6.4,11.3
		c1.4,4.1,2,8.2,2,12.3c0,5.2-0.9,9.8-2.7,13.9c-1.8,4.1-4.3,7.6-7.4,10.5c-3.1,2.9-6.8,5.1-10.8,6.7c-4.1,1.5-8.4,2.3-12.9,2.3
		H1797.4z M1806.6,437.4h11c3.8,0,7.3-0.6,10.4-1.7c3.2-1.1,6-2.8,8.3-4.9c2.4-2.1,4.2-4.8,5.5-7.9c1.3-3.1,2-6.7,2-10.6
		c0-4.2-0.7-7.9-2.1-11.1c-1.4-3.2-3.3-5.8-5.7-8c-2.4-2.1-5.1-3.8-8.1-4.9c-3-1.1-6.2-1.7-9.5-1.7h-11.8V437.4z"/>
	<path class="st4" d="M1886.2,377.9h44.4v8.8h-35.2v20.8h31.5v8.8h-31.5v21.2h36.6v8.8h-45.7V377.9z"/>
	<path class="st4" d="M2000.7,390.1c-2.3-1.2-4.9-2.2-7.7-3.1c-2.8-0.9-5.5-1.3-8.1-1.3c-3.7,0-6.6,0.8-8.7,2.6
		c-2.2,1.7-3.3,4-3.3,6.8c0,2.1,0.7,4,2.1,5.4c1.4,1.5,3.2,2.8,5.5,3.8s4.6,2.1,7.1,3c2.1,0.8,4.3,1.7,6.3,2.7c2.1,1,4,2.3,5.6,3.8
		c1.7,1.5,3,3.4,4,5.6c1,2.2,1.5,4.9,1.5,8.2c0,3.6-0.9,6.9-2.7,9.8c-1.8,3-4.4,5.3-7.7,7c-3.3,1.7-7.3,2.6-11.9,2.6
		c-3,0-5.9-0.3-8.6-1c-2.7-0.7-5.3-1.6-7.6-2.7s-4.4-2.3-6.2-3.4l4.1-7.2c1.5,1.1,3.2,2.1,5.2,3.1c1.9,1,4,1.8,6.1,2.4
		c2.1,0.6,4.2,0.9,6.2,0.9c2.1,0,4.3-0.4,6.4-1.2c2.1-0.8,3.9-2,5.2-3.6c1.4-1.6,2.1-3.8,2.1-6.5c0-2.3-0.6-4.3-1.8-5.8
		c-1.2-1.5-2.8-2.9-4.9-4c-2-1.1-4.2-2.1-6.4-3c-2.1-0.8-4.3-1.7-6.5-2.7c-2.2-1-4.3-2.2-6.1-3.6c-1.9-1.4-3.4-3.2-4.5-5.2
		c-1.1-2.1-1.7-4.6-1.7-7.6c0-3.6,0.9-6.7,2.6-9.4c1.7-2.7,4.1-4.8,7.1-6.3c3-1.5,6.5-2.4,10.4-2.5c4.4,0,8.3,0.5,11.7,1.6
		c3.4,1.1,6.3,2.4,8.9,4L2000.7,390.1z"/>
	<path class="st4" d="M2038,377.9h9.2v68.3h-9.2V377.9z"/>
	<path class="st4" d="M2137.9,440.4c-0.9,0.8-2.3,1.6-4,2.4c-1.7,0.8-3.6,1.5-5.6,2.1c-2,0.6-4.2,1.1-6.3,1.5
		c-2.2,0.4-4.2,0.6-6.1,0.6c-5.5,0-10.4-0.8-14.8-2.6c-4.4-1.7-8.1-4.1-11.2-7.1c-3.1-3-5.5-6.6-7.2-10.7s-2.5-8.5-2.5-13.3
		c0-5.7,0.9-10.8,2.8-15.3c1.9-4.5,4.4-8.3,7.7-11.4c3.2-3.1,7-5.5,11.2-7.1c4.2-1.6,8.7-2.4,13.4-2.4c4,0,7.7,0.5,11.1,1.4
		c3.4,0.9,6.4,2.1,9,3.6l-3.1,8.4c-1.3-0.8-2.8-1.4-4.7-2.1c-1.9-0.6-3.8-1.1-5.7-1.6c-2-0.4-3.8-0.6-5.5-0.6c-4,0-7.7,0.6-11,1.8
		c-3.3,1.2-6.1,3-8.4,5.3c-2.3,2.3-4.1,5.1-5.4,8.3c-1.3,3.2-1.9,6.9-1.9,10.9c0,3.7,0.6,7.1,1.9,10.2c1.3,3.1,3.1,5.8,5.4,8
		c2.3,2.2,5.1,4,8.4,5.2c3.2,1.2,6.8,1.8,10.7,1.8c2.3,0,4.6-0.2,6.9-0.7c2.3-0.5,4.2-1.1,5.9-2v-13.6h-13.6v-8.8h22.8V440.4z"/>
	<path class="st4" d="M2232.1,448.4l-52.8-53.6l2.6,0.7l0.2,50.8h-9.2v-70.4h0.5l52.3,53.8l-2.2-0.5l-0.2-51.2h9.1v70.5H2232.1z"/>
	<path class="st4" d="M2269.6,377.9h44.4v8.8h-35.2v20.8h31.5v8.8h-31.5v21.2h36.6v8.8h-45.7V377.9z"/>
	<path class="st4" d="M2366.9,377.9c3.5,0,6.7,0.5,9.6,1.4c2.9,0.9,5.5,2.3,7.7,4.1c2.2,1.8,3.9,4,5.1,6.6c1.2,2.6,1.8,5.7,1.8,9.1
		c0,2.7-0.4,5.4-1.2,7.9c-0.8,2.6-2.1,4.9-3.9,7c-1.8,2.1-4.2,3.8-7.1,5.1c-2.9,1.3-6.5,1.9-10.8,1.9H2358v25.1h-9.2v-68.3H2366.9z
		 M2367.9,412.3c2.7,0,5-0.4,6.8-1.2c1.8-0.8,3.2-1.9,4.2-3.2c1-1.3,1.7-2.7,2.2-4.2c0.4-1.5,0.7-2.9,0.7-4.3c0-1.4-0.2-2.8-0.7-4.3
		c-0.5-1.5-1.2-2.8-2.3-4.1c-1-1.3-2.4-2.3-4.1-3.1c-1.7-0.8-3.7-1.2-6.1-1.2H2358v25.6H2367.9z M2379.1,417.5l17.9,28.7h-10.6
		l-18.1-28.4L2379.1,417.5z"/>
</g>
</svg>
