<?xml version="1.0" encoding="utf-8"?>
<!-- Generator: Adobe Illustrator 27.0.0, SVG Export Plug-In . SVG Version: 6.00 Build 0)  -->
<svg version="1.1" id="Livello_1" xmlns="http://www.w3.org/2000/svg" xmlns:xlink="http://www.w3.org/1999/xlink" x="0px" y="0px"
	 viewBox="0 0 800 800" style="enable-background:new 0 0 800 800;" xml:space="preserve">
<style type="text/css">
	.st0{fill:#FFFFFF;}
</style>
<g>
	<path class="st0" d="M696.4,143.7c-17.7-13.3-36.9-23.5-57.1-30.6c-24.2-8.6-49.7-12.8-75.2-12.6c-54.8,0.6-109.5,21.8-151.3,63.6
		L390.9,186l-26.1,26.1l-25.2-62.5l-6.1-15.2c-1.3-3.2-2.5-6.9-4.5-9.9c-1.8-2.7-4.4-4.9-6.7-7.1c-12.1-9.3-29.6-8.5-40.8,2.7
		l-14.8,14.8l-7.4,7.4L215.5,186l-43.9,43.9l-43.9,43.9l-43.9,43.9l-21.9,21.9C26,375.5,11.4,424.6,18,471.2
		c3.2,22.3,11.2,44.1,24.1,63.6c5.7,8.5,12.2,16.6,19.7,24.1s15.6,14.1,24.1,19.7c19.5,13,41.3,21,63.6,24.1
		c46.6,6.7,95.7-8,131.6-43.9l21.9-21.9l43.9,43.9l43.9,43.9l43.9,43.9l21.9,21.9c10,10,25.1,11.7,36.8,5.3c2.5-1.4,4.9-3.1,7-5.3
		l21.9-21.9l19.2-19.2l24.7-24.7l43.9-43.9l43.9-43.9l43.9-43.9l21.9-21.9c41.8-41.8,63.1-96.5,63.6-151.3
		c0.2-25.5-3.9-50.9-12.6-75.2c-7.2-20.1-17.3-39.4-30.7-57.1c-6.1-8.2-12.9-16-20.4-23.5C712.4,156.6,704.6,149.8,696.4,143.7z
		 M719.9,295.6c6.6,46.7-8,95.7-43.9,131.6l-21.9,21.9L610.2,493l-41.7,41.7l-2.2,2.2l-43.9,43.9l-6.1,6.1l-37.8,37.8l-23.2-23.2
		l-20.7-20.7l-43.9-43.9L347,493l43.9-43.9l4.9,4.9l17,17l21.9,21.9l21.9,21.9c9.1,9.1,22.3,11.4,33.4,6.9c0.4-0.2,0.7-0.3,1.1-0.5
		c3.4-1.5,6.5-3.6,9.3-6.4l21.9-21.9l21.9-21.9l21.9-21.9l43.9-43.9l21.9-21.9c28.6-28.6,34.7-71.3,18.2-105.9
		c-4.4-9.3-10.5-18-18.2-25.7s-16.4-13.7-25.7-18.2c-34.6-16.5-77.3-10.4-105.9,18.2l-21.9,21.9l-43.9,43.9L415.4,337l-2.5,2.5
		L391,361.4l-23.1,23.1l-5.9,5.9l-15,14.9l-21.9,21.9l-21.9,21.9L259.3,493l-21.9,22c-28.7,28.7-71.3,34.7-105.9,18.2
		c-9.3-4.4-18-10.5-25.7-18.2s-13.7-16.4-18.2-25.7c-16.5-34.6-10.5-77.2,18.2-105.9l21.9-21.9l43.9-43.9l21.9-21.9l21.9-21.9
		l43.9-43.9l32.6-32.6l25.3,62.4l-14,14l-43.9,43.9l-2.2,2.2l-41.7,41.7l-3.8,3.8l-40.1,40.1l-21.9,21.9
		c-12.1,12.1-12.1,31.8,0,43.9s31.7,12.1,43.9,0l21.9-21.9l40.1-40.1l3.8-3.8l41.7-41.7l2.2-2.2l39.3-39.3l4.6-4.6l2.2-2.2
		l40.8-40.8l0.8-0.8l43.9-43.9l21.9-21.9c35.9-35.9,84.9-50.4,131.6-43.9c22.3,3.2,44.1,11.2,63.6,24.1c8.5,5.7,16.6,12.2,24.1,19.7
		s14.1,15.6,19.7,24.1C708.7,251.5,716.8,273.3,719.9,295.6z M440.6,399.5l38-38l3.8-3.8l40.1-40.1l21.9-21.9
		c12.1-12.1,31.8-12.1,43.9,0c12.1,12.1,12.1,31.8,0,43.9l-21.9,21.9l-40.1,40.1l-3.8,3.8L480.8,447l-2.2,2.2l-21.9-21.9l-8.1-8.1
		l-13.8-13.8l2.2-2.2L440.6,399.5z"/>
	<polygon class="st0" points="349.5,583.2 393.4,539.3 347.1,493 303.2,536.9 	"/>
	<polygon class="st0" points="437,495.6 480.9,451.8 434.6,405.5 390.7,449.4 	"/>
	<polygon class="st0" points="337.9,145.3 292,197.3 317.3,259.7 365,212.1 	"/>
</g>
</svg>
