<?xml version="1.0" encoding="utf-8"?>
<!-- Generator: Adobe Illustrator 27.0.0, SVG Export Plug-In . SVG Version: 6.00 Build 0)  -->
<svg version="1.1" id="Livello_1" xmlns="http://www.w3.org/2000/svg" xmlns:xlink="http://www.w3.org/1999/xlink" x="0px" y="0px"
	 viewBox="0 0 2400 619" style="enable-background:new 0 0 2400 619;" xml:space="preserve">
<style type="text/css">
	.st0{fill:#303030;}
	.st1{fill:#595959;}
	.st2{fill:url(#SVGID_1_);}
	.st3{fill:url(#SVGID_00000081622046347067241030000010193488557019878287_);}
	.st4{fill:url(#SVGID_00000083070945011591262560000013176787927767228597_);}
</style>
<g>
	<g>
		<path class="st0" d="M1018.9,193.8c-5.2-2.6-10.7-4.9-16.5-6.9c-5.8-1.9-11.4-2.9-16.7-2.9c-7.1,0-12.8,1.6-17,4.8
			c-4.2,3.2-6.3,7.5-6.3,13.1c0,4,1.4,7.4,4.3,10.4s6.6,5.6,11.1,7.7c4.6,2.2,9.4,4.3,14.4,6.3c4.4,1.6,8.7,3.5,13,5.7
			c4.3,2.2,8.2,4.9,11.6,8c3.4,3.2,6.2,7.1,8.1,11.8c2,4.7,3,10.5,3,17.4c0,7.5-1.9,14.5-5.7,20.7c-3.8,6.3-9.2,11.3-16.4,15
			c-7.1,3.7-15.8,5.6-26,5.6c-6.1,0-12-0.7-17.8-2c-5.8-1.3-11.2-3.1-16.4-5.5c-5.2-2.3-9.9-4.9-14.3-7.8l10.3-18.1
			c3.2,2.4,6.8,4.6,10.9,6.6c4.1,2,8.3,3.6,12.7,4.8c4.4,1.2,8.5,1.8,12.3,1.8c4.1,0,8.2-0.7,12.2-2.1c4-1.4,7.4-3.6,10.1-6.7
			c2.7-3,4.1-7.1,4.1-12.1c0-4.1-1.2-7.6-3.5-10.5c-2.3-2.9-5.4-5.5-9.2-7.6c-3.8-2.2-8-4.1-12.5-5.9c-4.5-1.7-9.1-3.6-13.7-5.8
			c-4.6-2.1-9-4.7-13-7.8c-4-3.1-7.3-6.9-9.8-11.4c-2.5-4.5-3.8-10.1-3.8-16.7c0-7.9,1.9-14.8,5.6-20.7c3.7-5.8,8.8-10.5,15.4-13.9
			c6.6-3.4,14.1-5.3,22.7-5.6c10.2,0,18.9,1.2,26.1,3.7c7.2,2.5,13.6,5.4,19.2,8.8L1018.9,193.8z"/>
		<path class="st0" d="M1043.5,309l63.9-150.5h1.4l63.9,150.5h-26.6l-44.9-114.4l16.5-11.1L1066.2,309H1043.5z M1083.6,255.2h49.4
			l7.9,19.9h-64.3L1083.6,255.2z"/>
		<path class="st0" d="M1238.1,164.5c7.9,0,15.2,1,21.8,3.1c6.6,2.1,12.2,5.1,16.9,9c4.6,4,8.2,8.8,10.8,14.6
			c2.6,5.8,3.9,12.3,3.9,19.8c0,5.7-0.9,11.4-2.6,17.1c-1.7,5.7-4.5,10.8-8.4,15.4c-3.9,4.6-9,8.3-15.4,11.1
			c-6.4,2.9-14.2,4.3-23.6,4.3h-20.9V309h-23.2V164.5H1238.1z M1241.3,236.5c5.2,0,9.5-0.8,12.9-2.5c3.4-1.7,6.1-3.7,8-6.3
			c1.9-2.5,3.3-5.2,4.2-8c0.9-2.8,1.3-5.5,1.3-8c0-2.4-0.4-5-1.2-7.8c-0.8-2.8-2.2-5.6-4.1-8.1c-1.9-2.6-4.5-4.7-7.8-6.5
			c-3.3-1.7-7.5-2.6-12.5-2.6h-21.4v49.8H1241.3z M1266.3,250.2l36.9,58.8h-26.8l-37.7-58.2L1266.3,250.2z"/>
		<path class="st0" d="M1315.4,309l63.9-150.5h1.4l63.9,150.5H1418l-44.9-114.4l16.5-11.1L1338,309H1315.4z M1355.5,255.2h49.4
			l7.9,19.9h-64.3L1355.5,255.2z"/>
		<path class="st0" d="M1532.8,309V164.5h41.1c14.3,0,26.5,2.2,36.6,6.6c10.1,4.4,18.3,10.1,24.5,17.3c6.2,7.1,10.8,15.1,13.6,23.9
			s4.3,17.6,4.3,26.5c0,10.9-1.9,20.6-5.8,29.2c-3.8,8.6-9.1,16-15.8,22.1c-6.7,6.2-14.4,10.9-23,14.1c-8.7,3.2-17.8,4.9-27.5,4.9
			H1532.8z M1556,286.8h20.7c7.7,0,14.7-1.1,21-3.3c6.4-2.2,11.9-5.4,16.6-9.5c4.7-4.2,8.3-9.4,10.9-15.6c2.6-6.2,3.9-13.3,3.9-21.3
			c0-9-1.5-16.7-4.5-23.1c-3-6.4-6.9-11.7-11.7-15.7c-4.8-4-10.1-7-15.8-8.9c-5.7-1.9-11.3-2.9-16.9-2.9H1556V286.8z"/>
		<path class="st0" d="M1683.7,164.5h95.9v22.2H1707v38.5h64.7v22.2H1707v39.3h75.5V309h-98.7V164.5z"/>
		<path class="st0" d="M1941.5,314.2l-111-107.6l6.8,2.8l0.6,99.7h-23.4V159.5h1.2l109.2,107.6l-5.4-1.6l-0.4-101.1h23v149.7H1941.5
			z"/>
		<path class="st0" d="M1966.9,309l63.9-150.5h1.4l63.9,150.5h-26.6l-44.9-114.4l16.5-11.1L1989.5,309H1966.9z M2007,255.2h49.4
			l7.9,19.9h-64.3L2007,255.2z"/>
		<path class="st0" d="M2161.5,164.5c7.9,0,15.2,1,21.8,3.1c6.6,2.1,12.2,5.1,16.9,9c4.6,4,8.2,8.8,10.8,14.6
			c2.6,5.8,3.9,12.3,3.9,19.8c0,5.7-0.9,11.4-2.6,17.1c-1.7,5.7-4.5,10.8-8.4,15.4c-3.9,4.6-9,8.3-15.4,11.1
			c-6.4,2.9-14.2,4.3-23.6,4.3H2144V309h-23.2V164.5H2161.5z M2164.7,236.5c5.2,0,9.5-0.8,12.9-2.5c3.4-1.7,6.1-3.7,8-6.3
			c1.9-2.5,3.3-5.2,4.2-8c0.9-2.8,1.3-5.5,1.3-8c0-2.4-0.4-5-1.2-7.8c-0.8-2.8-2.2-5.6-4.1-8.1c-1.9-2.6-4.5-4.7-7.8-6.5
			c-3.3-1.7-7.5-2.6-12.5-2.6H2144v49.8H2164.7z M2189.7,250.2l36.9,58.8h-26.8l-37.7-58.2L2189.7,250.2z"/>
		<path class="st0" d="M2240.9,236.9c0-10.1,1.9-19.5,5.8-28.4c3.8-8.9,9.1-16.7,15.9-23.6c6.8-6.9,14.6-12.3,23.5-16.2
			c8.9-3.9,18.5-5.9,28.7-5.9c10.1,0,19.6,2,28.5,5.9c8.9,3.9,16.8,9.3,23.6,16.2c6.8,6.9,12.2,14.8,16.1,23.6
			c3.9,8.9,5.9,18.3,5.9,28.4c0,10.2-2,19.8-5.9,28.7c-3.9,8.9-9.3,16.8-16.1,23.5c-6.8,6.8-14.7,12-23.6,15.8s-18.4,5.7-28.5,5.7
			c-10.3,0-19.9-1.9-28.8-5.7s-16.7-9-23.4-15.7c-6.8-6.7-12.1-14.5-15.9-23.4C2242.9,256.9,2240.9,247.3,2240.9,236.9z
			 M2264.8,236.9c0,7.1,1.3,13.8,3.9,20.1c2.6,6.2,6.2,11.7,10.8,16.4c4.6,4.7,10,8.4,16.1,11c6.1,2.6,12.7,4,19.9,4
			c6.9,0,13.3-1.3,19.4-4c6-2.6,11.3-6.3,15.8-11c4.5-4.7,8-10.2,10.6-16.4c2.6-6.2,3.9-12.9,3.9-20.1c0-7.3-1.3-14-4-20.3
			c-2.6-6.2-6.2-11.7-10.7-16.5c-4.5-4.8-9.8-8.5-15.9-11.1c-6.1-2.6-12.6-4-19.7-4s-13.6,1.3-19.7,4c-6.1,2.6-11.4,6.4-16,11.1
			c-4.6,4.8-8.1,10.3-10.6,16.6C2266,223.1,2264.8,229.8,2264.8,236.9z"/>
	</g>
	<g>
		<path class="st1" d="M940.9,429.4c0,3.3,0.8,6.2,2.4,8.8c1.6,2.6,3.7,4.6,6.3,6.1c2.6,1.5,5.6,2.2,8.8,2.2c3.4,0,6.5-0.7,9.1-2.2
			c2.7-1.5,4.8-3.5,6.3-6.1c1.5-2.6,2.3-5.5,2.3-8.8v-46.9h9.5v47.2c0,5.3-1.2,9.9-3.7,13.9c-2.4,3.9-5.7,7-9.8,9.1
			c-4.1,2.1-8.7,3.2-13.8,3.2c-5.1,0-9.7-1.1-13.8-3.2c-4.1-2.1-7.3-5.2-9.7-9.1c-2.4-3.9-3.6-8.6-3.6-13.9v-47.2h9.6V429.4z"/>
		<path class="st1" d="M1013.1,455.1l25.2-39.5l4.7,9.4l-17.9,30H1013.1z M1014.1,382.5h12.4l47.3,72.6h-12.5L1014.1,382.5z
			 M1043.3,412.1l17.7-29.6h11.7l-24.2,37.8L1043.3,412.1z"/>
		<path class="st1" d="M1130.2,380.3c-4.7,12.8-9.4,25.6-14.1,38.4c-4.7,12.8-9.4,25.6-14.2,38.4h-8.5c4.8-12.8,9.5-25.6,14.2-38.4
			c4.7-12.8,9.4-25.6,14.2-38.4H1130.2z"/>
		<path class="st1" d="M1164,429.4c0,3.3,0.8,6.2,2.4,8.8c1.6,2.6,3.7,4.6,6.3,6.1c2.6,1.5,5.6,2.2,8.8,2.2c3.4,0,6.5-0.7,9.1-2.2
			c2.7-1.5,4.8-3.5,6.3-6.1c1.5-2.6,2.3-5.5,2.3-8.8v-46.9h9.5v47.2c0,5.3-1.2,9.9-3.7,13.9c-2.4,3.9-5.7,7-9.8,9.1
			c-4.1,2.1-8.7,3.2-13.8,3.2c-5.1,0-9.7-1.1-13.8-3.2c-4.1-2.1-7.3-5.2-9.7-9.1c-2.4-3.9-3.6-8.6-3.6-13.9v-47.2h9.6V429.4z"/>
		<path class="st1" d="M1243.3,382.5h9.7v72.6h-9.7V382.5z"/>
		<path class="st1" d="M1334.8,455.1v-72.6h19.8c7.2,0,13.3,1.1,18.3,3.3c5.1,2.2,9.1,5.1,12.2,8.7c3.1,3.6,5.3,7.6,6.8,12
			c1.4,4.4,2.2,8.8,2.2,13.1c0,5.5-1,10.4-2.9,14.8c-1.9,4.4-4.5,8.1-7.9,11.2c-3.3,3.1-7.2,5.4-11.5,7.1c-4.3,1.6-8.9,2.5-13.7,2.5
			H1334.8z M1344.5,445.7h11.7c4,0,7.7-0.6,11.1-1.8c3.4-1.2,6.3-2.9,8.8-5.2c2.5-2.3,4.5-5.1,5.9-8.4c1.4-3.3,2.1-7.1,2.1-11.3
			c0-4.5-0.7-8.4-2.2-11.8c-1.5-3.4-3.5-6.2-6-8.5c-2.5-2.3-5.4-4-8.6-5.2c-3.2-1.2-6.6-1.8-10.1-1.8h-12.6V445.7z"/>
		<path class="st1" d="M1425,382.5h47.2v9.3h-37.5v22.1h33.4v9.3h-33.4v22.5h38.9v9.3H1425V382.5z"/>
		<path class="st1" d="M1542.6,395.4c-2.5-1.3-5.2-2.4-8.1-3.3c-2.9-0.9-5.8-1.4-8.6-1.4c-3.9,0-7,0.9-9.3,2.7
			c-2.3,1.8-3.5,4.2-3.5,7.2c0,2.3,0.7,4.2,2.2,5.8c1.5,1.6,3.4,2.9,5.8,4.1c2.4,1.1,4.9,2.2,7.5,3.2c2.3,0.9,4.5,1.8,6.7,2.9
			c2.2,1.1,4.2,2.4,6,4c1.8,1.6,3.2,3.6,4.2,5.9c1,2.3,1.6,5.3,1.6,8.7c0,3.8-1,7.3-2.9,10.4c-1.9,3.1-4.6,5.6-8.2,7.4
			c-3.5,1.8-7.8,2.7-12.7,2.7c-3.2,0-6.3-0.4-9.2-1.1c-2.9-0.7-5.6-1.7-8.1-2.9c-2.5-1.2-4.7-2.4-6.6-3.7l4.3-7.6
			c1.6,1.1,3.4,2.2,5.5,3.3c2.1,1,4.3,1.9,6.5,2.5c2.3,0.6,4.5,1,6.6,1c2.3,0,4.5-0.4,6.8-1.3c2.2-0.8,4.1-2.1,5.6-3.9
			c1.5-1.7,2.2-4.1,2.2-6.9c0-2.5-0.7-4.5-2-6.2c-1.3-1.6-3-3-5.2-4.2c-2.1-1.2-4.4-2.2-6.8-3.2c-2.3-0.9-4.6-1.8-6.9-2.9
			c-2.3-1-4.5-2.3-6.5-3.8c-2-1.5-3.6-3.4-4.8-5.6c-1.2-2.2-1.8-4.9-1.8-8c0-3.8,0.9-7.1,2.8-10c1.8-2.8,4.4-5.1,7.6-6.7
			c3.2-1.6,6.9-2.5,11-2.7c4.7,0,8.8,0.6,12.4,1.7c3.6,1.1,6.7,2.5,9.5,4.2L1542.6,395.4z"/>
		<path class="st1" d="M1578,382.5h9.7v72.6h-9.7V382.5z"/>
		<path class="st1" d="M1680,448.9c-1,0.9-2.4,1.7-4.2,2.6c-1.8,0.8-3.8,1.6-6,2.3c-2.2,0.7-4.4,1.2-6.7,1.6
			c-2.3,0.4-4.5,0.6-6.5,0.6c-5.8,0-11.1-0.9-15.7-2.7c-4.7-1.8-8.6-4.3-12-7.5c-3.3-3.2-5.9-7-7.6-11.3c-1.8-4.4-2.7-9.1-2.7-14.2
			c0-6,1-11.4,3-16.2c2-4.8,4.7-8.8,8.1-12.2c3.4-3.3,7.4-5.8,11.9-7.5c4.5-1.7,9.2-2.6,14.3-2.6c4.2,0,8.1,0.5,11.7,1.5
			c3.6,1,6.8,2.3,9.5,3.8l-3.3,8.9c-1.3-0.8-3-1.5-5-2.2c-2-0.7-4-1.2-6.1-1.7s-4-0.7-5.8-0.7c-4.3,0-8.2,0.7-11.7,2
			c-3.5,1.3-6.5,3.2-8.9,5.6c-2.5,2.4-4.4,5.4-5.7,8.8c-1.3,3.4-2,7.3-2,11.6c0,3.9,0.7,7.6,2,10.8c1.3,3.3,3.2,6.1,5.7,8.5
			c2.5,2.4,5.4,4.2,8.9,5.5c3.4,1.3,7.2,2,11.4,2c2.5,0,4.9-0.3,7.3-0.8c2.4-0.5,4.5-1.2,6.2-2.2v-14.5h-14.5v-9.3h24.2V448.9z"/>
		<path class="st1" d="M1776,457.4l-56.1-56.9l2.8,0.7l0.2,53.9h-9.7v-74.8h0.5l55.5,57.1l-2.3-0.5l-0.2-54.4h9.6v74.9H1776z"/>
		<path class="st1" d="M1811.8,382.5h47.2v9.3h-37.5v22.1h33.4v9.3h-33.4v22.5h38.9v9.3h-48.6V382.5z"/>
		<path class="st1" d="M1911.1,382.5c3.7,0,7.1,0.5,10.2,1.5c3.1,1,5.8,2.4,8.1,4.3c2.3,1.9,4.1,4.3,5.4,7c1.3,2.8,2,6,2,9.7
			c0,2.9-0.4,5.7-1.3,8.4c-0.8,2.7-2.2,5.2-4.2,7.5c-1.9,2.2-4.5,4-7.6,5.4c-3.1,1.4-6.9,2.1-11.5,2.1h-10.7v26.7h-9.7v-72.6H1911.1
			z M1912.1,419c2.9,0,5.3-0.4,7.2-1.3c1.9-0.9,3.4-2,4.5-3.4c1.1-1.4,1.8-2.9,2.3-4.5c0.5-1.6,0.7-3.1,0.7-4.5c0-1.5-0.2-3-0.8-4.6
			c-0.5-1.6-1.3-3-2.4-4.4c-1.1-1.3-2.5-2.4-4.3-3.3c-1.8-0.9-3.9-1.3-6.5-1.3h-11.2V419H1912.1z M1924.1,424.6l19,30.5h-11.2
			l-19.3-30.2L1924.1,424.6z"/>
	</g>
</g>
<g>
	<path class="st0" d="M697.7,51.9c-17.7-13.3-36.9-23.5-57.1-30.6c-24.2-8.6-49.6-12.8-75.1-12.6c-54.7,0.6-109.4,21.8-151.1,63.5
		l-21.9,21.9l-26,26l-25.2-62.4c0,0-6.1-15.2-6.1-15.2c-1.3-3.2-2.5-6.9-4.5-9.9c-1.8-2.7-4.4-4.9-6.7-7.1
		c-12.1-9.3-29.6-8.5-40.7,2.7L268.5,43l-7.4,7.4l-43.8,43.8L173.5,138l-43.8,43.8l-43.8,43.8L64,247.5
		C28.2,283.4,13.5,332.4,20.2,379c3.2,22.2,11.2,44,24.1,63.5c5.6,8.5,12.2,16.6,19.7,24.1c7.5,7.5,15.6,14.1,24.1,19.7
		c19.5,12.9,41.2,21,63.5,24.1c46.6,6.7,95.6-8,131.4-43.8l21.9-21.9l43.8,43.8l43.8,43.8l43.8,43.8l21.9,21.9
		c10,10,25.1,11.7,36.8,5.3c2.5-1.4,4.9-3.1,7-5.3l21.9-21.9l19.2-19.2l24.6-24.6l43.8-43.8l43.8-43.8l43.8-43.8l21.9-21.9
		c41.8-41.8,63-96.4,63.5-151.2c0.2-25.5-3.9-50.9-12.6-75.1c-7.2-20.1-17.3-39.3-30.6-57c-6.1-8.2-12.9-16-20.3-23.5
		C713.7,64.8,705.9,58.1,697.7,51.9z M721.2,203.7c6.6,46.6-8,95.6-43.8,131.4l-21.9,21.9l-43.8,43.8L570,442.5l-2.2,2.2L524,488.5
		l-6.1,6.1l-37.7,37.7L457,509.1l-20.6-20.6l-43.8-43.8l-43.8-43.8l43.8-43.8l4.9,4.9l17,17l21.9,21.9l21.9,21.9
		c9.1,9.1,22.2,11.3,33.4,6.9c0.4-0.2,0.7-0.3,1.1-0.5c3.4-1.5,6.5-3.6,9.3-6.4l21.9-21.9l21.9-21.9l21.9-21.9l43.8-43.8l21.9-21.9
		c28.6-28.6,34.7-71.2,18.2-105.8c-4.4-9.2-10.5-18-18.2-25.7c-7.7-7.7-16.4-13.7-25.7-18.2c-34.6-16.5-77.2-10.4-105.8,18.2
		l-21.9,21.9l-43.8,43.8L417,245l-2.5,2.5l-21.9,21.9l-23.1,23.1l-5.9,5.9l-14.8,14.8l-21.9,21.9L305,357.1l-43.8,43.8l-21.9,21.9
		c-28.6,28.6-71.2,34.7-105.8,18.2c-9.2-4.4-18-10.5-25.7-18.2c-7.7-7.7-13.7-16.4-18.2-25.7c-16.5-34.5-10.5-77.2,18.2-105.8
		l21.9-21.9l43.8-43.8l21.9-21.9l21.9-21.9l43.8-43.8l32.6-32.6l25.3,62.4l-14,14l-43.8,43.8l-2.2,2.2l-41.6,41.6l-3.7,3.7
		l-40.1,40.1l-21.9,21.9c-12.1,12.1-12.1,31.7,0,43.8c12.1,12.1,31.7,12.1,43.8,0l21.9-21.9l40.1-40.1l3.7-3.7l41.6-41.6l2.2-2.2
		l39.2-39.2l4.6-4.6l2.2-2.2l40.8-40.8l0.8-0.8l43.8-43.8l21.9-21.9c35.8-35.8,84.9-50.4,131.4-43.8c22.2,3.2,44,11.2,63.5,24.1
		c8.5,5.6,16.6,12.2,24.1,19.7c7.5,7.5,14.1,15.6,19.7,24.1C710,159.7,718.1,181.4,721.2,203.7z M442.2,307.4l38-38l3.7-3.7
		l40.1-40.1l21.9-21.9c12.1-12.1,31.7-12.1,43.8,0c12.1,12.1,12.1,31.7,0,43.8l-21.9,21.9l-40.1,40.1l-3.7,3.7l-41.6,41.6l-2.2,2.2
		l-21.9-21.9l-8.1-8.1l-13.8-13.8l2.2-2.2L442.2,307.4z"/>
	<linearGradient id="SVGID_1_" gradientUnits="userSpaceOnUse" x1="372.539" y1="468.752" x2="327.0443" y2="422.5984">
		<stop  offset="0.3343" style="stop-color:#000000;stop-opacity:0"/>
		<stop  offset="1" style="stop-color:#000000"/>
	</linearGradient>
	<polygon class="st2" points="351.2,490.9 395,447.1 348.8,400.9 305,444.7 	"/>
	
		<linearGradient id="SVGID_00000059996100694457589330000009453240309780422830_" gradientUnits="userSpaceOnUse" x1="459.9906" y1="381.3004" x2="414.4959" y2="335.1468">
		<stop  offset="0.3343" style="stop-color:#000000;stop-opacity:0"/>
		<stop  offset="1" style="stop-color:#000000"/>
	</linearGradient>
	<polygon style="fill:url(#SVGID_00000059996100694457589330000009453240309780422830_);" points="438.7,403.5 482.5,359.6 
		436.3,313.4 392.4,357.2 	"/>
	
		<linearGradient id="SVGID_00000138567207132587047150000000641746739399595199_" gradientUnits="userSpaceOnUse" x1="-939.8104" y1="743.9418" x2="-978.4847" y2="704.7075" gradientTransform="matrix(-1 0 0 -1 -620.231 844.7477)">
		<stop  offset="0.2363" style="stop-color:#000000;stop-opacity:0"/>
		<stop  offset="1" style="stop-color:#000000"/>
	</linearGradient>
	<polygon style="fill:url(#SVGID_00000138567207132587047150000000641746739399595199_);" points="339.6,53.5 293.8,105.5 
		319,167.8 366.7,120.2 	"/>
</g>
</svg>
